<?xml version="1.0" encoding="utf-8"?>
<!-- Generator: Adobe Illustrator 27.9.0, SVG Export Plug-In . SVG Version: 6.00 Build 0)  -->
<svg version="1.1" id="Layer_1" xmlns="http://www.w3.org/2000/svg" xmlns:xlink="http://www.w3.org/1999/xlink" x="0px" y="0px"
	 viewBox="0 0 105.3 105" style="enable-background:new 0 0 105.3 105;" xml:space="preserve">
<style type="text/css">
	.st0{fill:none;stroke:#727371;stroke-width:5;stroke-miterlimit:10;}
	.st1{fill:none;stroke:#727371;stroke-width:5;stroke-linecap:round;stroke-linejoin:round;stroke-miterlimit:160;}
	.st2{fill:none;stroke:#727371;stroke-width:4;stroke-miterlimit:10;}
</style>
<g>
	<path id="primary" class="st0" d="M63.2,72.7c0.3,11.8,6.2,22.6,15.7,29.1H26.5c9.5-6.5,15.4-17.3,15.7-29.1"/>
	<path id="primary-2" class="st1" d="M85.9,102.2H19.5"/>
	<path class="st2" d="M56.2,29l-2.5-4.7c-0.4-0.7-1.6-0.7-1.9,0L49.2,29c-0.1,0.3-0.4,0.5-0.8,0.6L43,30.3c-1,0.1-1.3,1.3-0.6,1.9
		l3.9,3.6c0.3,0.2,0.4,0.7,0.4,1l-0.9,4.8c-0.1,0.9,0.7,1.6,1.6,1.2l5.1-2.5c0.3-0.1,0.7-0.1,1,0l5.1,2.5c0.8,0.4,1.7-0.3,1.6-1.2
		L59,36.9c-0.1-0.4,0.1-0.7,0.4-1l3.9-3.4c0.7-0.6,0.4-1.8-0.6-1.9l-5.7-1C56.6,29.5,56.3,29.3,56.2,29z"/>
	<path class="st1" d="M8.5,13.8c-3,0-5.6,2.4-5.6,5.6V25c0,12.2,9.9,22,22.1,22V13.8H8.5z"/>
	<path class="st1" d="M80.3,2.8H25v11v33.1c0,15.3,12.4,27.7,27.7,27.7s27.7-12.4,27.7-27.7V13.7C80.3,13.7,80.3,2.8,80.3,2.8z"/>
	<path class="st1" d="M96.8,13.7H80.3v33.2c12.3,0,22.1-9.8,22.1-22.1v-5.6C102.4,16.2,100,13.7,96.8,13.7z"/>
</g>
</svg>
