<?xml version="1.0" encoding="utf-8"?>
<!-- Generator: Adobe Illustrator 27.9.0, SVG Export Plug-In . SVG Version: 6.00 Build 0)  -->
<svg version="1.1" id="Layer_1" xmlns="http://www.w3.org/2000/svg" xmlns:xlink="http://www.w3.org/1999/xlink" x="0px" y="0px"
	 viewBox="0 0 131.6 126.6" style="enable-background:new 0 0 131.6 126.6;" xml:space="preserve">
<style type="text/css">
	.st0{fill:#DFD4C9;stroke:#BBADA0;stroke-width:7.5;stroke-miterlimit:10;}
</style>
<path class="st0" d="M33.1,121.9c-1.7,0-3.4-0.5-4.6-1.4c-2.9-2.1-4-6.2-3.1-11.6l4.8-28.6L9.4,60.2l0,0l0,0l-0.7-0.7
	c-0.1-0.1-0.1-0.1-0.2-0.2C5.2,55.7,4,52.2,5,49c1.1-3.4,4.6-5.7,10-6.5l28.7-4.2l12.7-26c2.4-4.9,5.7-7.6,9.2-7.6l0,0
	c3.6,0,6.8,2.7,9.2,7.5l13,25.8l28.7,4c5.4,0.8,9,3.1,10.1,6.5c1.2,3.4-0.4,7.3-4.3,11.2L101.6,80l5,28.5c1,5.4-0.1,9.4-3,11.6
	c-2.9,2.1-7.1,1.9-11.9-0.7L66,106l-25.6,13.6C37.7,121.2,35.3,121.9,33.1,121.9z"/>
</svg>
